<svg width="158" height="24" viewBox="0 0 158 24" fill="none" xmlns="http://www.w3.org/2000/svg">
<path d="M11.2068 23.9998C3.47347 23.9731 -0.179865 21.5731 0.00680211 15.7598H6.6468C6.7268 17.2798 8.0068 18.2131 11.2068 18.2398C14.0335 18.2664 15.3401 17.4664 15.3401 16.4264C15.3401 15.7064 14.9401 14.9598 12.7535 14.6398L9.87347 14.1864C5.63347 13.4931 0.540135 12.9864 0.540135 7.25311C0.540135 2.82645 4.14014 0.106445 11.2601 0.106445C17.6868 0.106445 22.1668 1.89311 22.0335 8.29311H15.4468C15.1801 6.79978 13.9268 5.86645 11.1001 5.86645C8.6468 5.86645 7.63347 6.61311 7.63347 7.62645C7.63347 8.26645 8.03347 9.03978 9.74014 9.30645L12.1135 9.70645C16.5668 10.4531 22.6735 10.5864 22.6735 16.7198C22.6735 21.5998 18.8868 24.0264 11.2068 23.9998Z" fill="black"/>
<path d="M39.7535 1.60001H47.1401V24H39.7535V15.8933H31.0601V24H23.6735V1.60001H31.0601V9.70667H39.7535V1.60001Z" fill="black"/>
<path d="M60.8335 24C53.1268 24 48.1401 19.2267 48.1401 12.0533C48.1401 4.87999 53.1268 0.106659 60.8335 0.106659C68.5401 0.106659 73.5268 4.87999 73.5268 12.0533C73.5268 19.2267 68.5401 24 60.8335 24ZM60.8335 17.6267C63.7668 17.6267 66.1935 15.6 66.1935 12.0533C66.1935 8.50666 63.7668 6.47999 60.8335 6.47999C57.9001 6.47999 55.4735 8.50666 55.4735 12.0533C55.4735 15.6 57.9001 17.6267 60.8335 17.6267Z" fill="black"/>
<path d="M74.5268 24V1.60001H87.2468C93.3535 1.60001 96.9801 4.32001 96.9801 10.3467C96.9801 16.3733 93.3535 19.0933 87.2735 19.0933H81.9135V24H74.5268ZM81.9135 12.96H86.6068C88.3935 12.96 89.5401 12.08 89.5401 10.3467C89.5401 8.61334 88.3935 7.73334 86.6335 7.73334H81.9135V12.96Z" fill="black"/>
<path d="M101.66 24C99.6601 24 97.9801 22.3467 97.9801 20.3733C97.9801 18.4 99.6601 16.7467 101.66 16.7467C103.66 16.7467 105.34 18.4 105.34 20.3733C105.34 22.3467 103.66 24 101.66 24Z" fill="black"/>
<path d="M118.927 24C111.38 24 106.34 19.2267 106.34 12.0533C106.34 4.87999 111.38 0.106659 118.927 0.106659C124.393 0.106659 129.993 2.50666 130.74 10.08H123.7C123.087 7.62666 121.353 6.47999 118.927 6.47999C115.993 6.47999 113.673 8.66666 113.673 12.0533C113.673 15.44 115.993 17.6267 118.927 17.6267C121.353 17.6267 123.087 16.48 123.7 13.9733H130.74C129.993 21.6 124.447 24 118.927 24Z" fill="black"/>
<path d="M144.433 24C136.727 24 131.74 19.2267 131.74 12.0533C131.74 4.87999 136.727 0.106659 144.433 0.106659C152.14 0.106659 157.127 4.87999 157.127 12.0533C157.127 19.2267 152.14 24 144.433 24ZM144.433 17.6267C147.367 17.6267 149.793 15.6 149.793 12.0533C149.793 8.50666 147.367 6.47999 144.433 6.47999C141.5 6.47999 139.073 8.50666 139.073 12.0533C139.073 15.6 141.5 17.6267 144.433 17.6267Z" fill="black"/>
</svg>
